<?xml version="1.0" standalone="no"?>
<!DOCTYPE svg PUBLIC "-//W3C//DTD SVG 20010904//EN"
 "http://www.w3.org/TR/2001/REC-SVG-20010904/DTD/svg10.dtd">
<svg version="1.0" xmlns="http://www.w3.org/2000/svg"
 width="88.000000pt" height="88.000000pt" viewBox="0 0 88.000000 88.000000"
 preserveAspectRatio="xMidYMid meet">
<metadata>
Created by potrace 1.14, written by Peter Selinger 2001-2017
</metadata>
<g transform="translate(0.000000,88.000000) scale(0.100000,-0.100000)"
fill="#000000" stroke="none">
<path d="M80 513 l0 -193 148 0 c81 0 222 -2 313 -4 l166 -5 6 187 c4 102 4
189 -1 193 -4 4 -148 9 -320 11 l-312 3 0 -192z m423 160 l187 -6 0 -153 c0
-84 -4 -155 -8 -158 -6 -4 -511 -10 -569 -7 -10 1 -13 41 -13 166 l0 165 108
0 c59 0 191 -3 295 -7z"/>
<path d="M183 593 c-7 -2 -13 -13 -13 -23 0 -10 6 -21 13 -23 7 -3 5 -6 -5 -6
-27 -1 -21 -21 6 -21 28 0 42 16 44 53 2 27 -13 34 -45 20z"/>
<path d="M240 572 c0 -15 -5 -33 -12 -40 -9 -9 -7 -12 9 -12 14 0 23 8 26 23
l4 22 2 -22 c0 -13 5 -23 9 -23 5 0 14 10 21 23 l11 22 -6 -22 c-5 -23 -4 -23
89 -23 l95 0 6 32 c3 17 2 36 -3 41 -12 12 -56 5 -57 -10 -1 -7 -2 -20 -3 -28
-2 -28 -21 -15 -21 15 0 41 -23 39 -50 -5 -32 -51 -37 -42 -13 23 8 19 -35 14
-46 -5 -10 -17 -10 -17 -11 0 0 11 -8 17 -25 17 -21 0 -25 -5 -25 -28z m240 4
c0 -3 -4 -8 -10 -11 -5 -3 -10 -1 -10 4 0 6 5 11 10 11 6 0 10 -2 10 -4z"/>
<path d="M510 584 c0 -8 5 -12 10 -9 13 8 13 -11 0 -36 -9 -16 -7 -19 9 -19
14 0 21 8 23 28 2 15 8 26 16 25 6 -2 12 4 12 12 0 10 -11 15 -35 15 -25 0
-35 -4 -35 -16z"/>
<path d="M280 469 c0 -5 5 -7 10 -4 6 3 10 8 10 11 0 2 -4 4 -10 4 -5 0 -10
-5 -10 -11z"/>
<path d="M377 466 c-21 -16 -22 -23 -3 -23 8 0 14 5 13 11 -1 6 6 11 15 11 23
0 31 10 10 12 -9 1 -25 -4 -35 -11z"/>
<path d="M476 468 c3 -4 9 -8 15 -8 5 0 9 4 9 8 0 5 -7 9 -15 9 -8 0 -12 -4
-9 -9z"/>
<path d="M566 468 c3 -5 10 -6 15 -3 13 9 11 12 -6 12 -8 0 -12 -4 -9 -9z"/>
<path d="M300 451 c0 -6 5 -13 10 -16 6 -3 10 1 10 9 0 9 -4 16 -10 16 -5 0
-10 -4 -10 -9z"/>
<path d="M544 430 c0 -13 4 -16 10 -10 7 7 7 13 0 20 -6 6 -10 3 -10 -10z"/>
<path d="M605 440 c-3 -5 -1 -10 4 -10 6 0 11 5 11 10 0 6 -2 10 -4 10 -3 0
-8 -4 -11 -10z"/>
<path d="M431 424 c0 -11 3 -14 6 -6 3 7 2 16 -1 19 -3 4 -6 -2 -5 -13z"/>
<path d="M465 420 c-3 -5 1 -10 9 -10 9 0 16 5 16 10 0 6 -4 10 -9 10 -6 0
-13 -4 -16 -10z"/>
<path d="M510 420 c-9 -6 -10 -10 -3 -10 6 0 15 5 18 10 8 12 4 12 -15 0z"/>
<path d="M390 295 c0 -8 5 -15 10 -15 6 0 10 7 10 15 0 8 -4 15 -10 15 -5 0
-10 -7 -10 -15z"/>
</g>
</svg>
